<svg width="975" height="314" viewBox="0 0 975 314" fill="none" xmlns="http://www.w3.org/2000/svg">
<rect width="975" height="314" fill="#1E1E1E"/>
<path fill-rule="evenodd" clip-rule="evenodd" d="M344.927 18.2584C342.194 18.4745 342.116 18.7077 343.36 22.9279C344.742 27.619 344.248 27.3778 350.391 26.3622C353.351 25.8728 357.416 25.2069 359.425 24.8822C363.682 24.1942 363.804 24.3789 356.479 20.4518C351.471 17.7676 351.371 17.7485 344.927 18.2584ZM418.6 19.7323C395.575 20.8976 364.523 24.5905 339.567 29.1324C324.715 31.8352 322.109 32.3861 322.134 32.8168C322.145 33.0005 323.154 33.8895 324.378 34.7926C325.602 35.6957 326.603 36.6203 326.603 36.847C326.603 37.0741 322.957 37.9857 318.5 38.8733C293.434 43.866 263.207 51.6956 210.165 66.936C185.435 74.0412 183.777 74.4479 174.513 75.6772C160.583 77.5259 155.023 78.7727 148.833 81.4355L146.554 82.4156L147.681 83.9456C149 85.7348 148.583 86.915 146.428 87.4934C145.692 87.691 139.479 88.1023 132.62 88.4075C116.264 89.136 108.556 88.4735 102.777 85.8438C100.875 84.9788 99.9917 84.8957 95.9258 85.2019C91.3155 85.5486 91.2362 85.5767 89.5294 87.4724C87.7238 89.4777 85.7632 92.9159 85.7632 94.0767C85.7632 95.319 88.4628 97.3363 92.7999 99.3361C95.1614 100.425 97.2502 101.571 97.4417 101.881C97.9483 102.704 97.6735 102.622 93.4576 100.694C87.7692 98.0938 87.0417 98.34 90.038 101.852L91.8191 103.94L90.6817 105.57C90.0564 106.466 87.6565 109.788 85.3488 112.952C79.5512 120.903 81.3134 119.012 88.2564 109.832C93.7498 102.569 95.2372 101.021 95.2372 102.57C95.2372 103.108 86.4189 115.697 83.1444 119.832C82.8721 120.176 82.7609 120.457 82.8976 120.457C83.0342 120.457 85.5652 117.249 88.5221 113.328C94.7176 105.112 96.1622 103.446 97.0911 103.446C98.5905 103.446 98.1986 105.062 95.9143 108.299C94.5935 110.17 91.6246 114.291 89.3164 117.455C83.7472 125.091 83.8848 124.891 84.8537 123.96C85.2835 123.547 88.6817 119.202 92.4055 114.304L99.1759 105.399L99.9976 106.994C100.596 108.155 100.688 108.878 100.335 109.655C99.2542 112.034 83.5712 132.465 82.8253 132.465C82.6263 132.465 82.0369 132.152 81.5153 131.77C80.7011 131.172 80.6507 130.889 81.1598 129.768C81.4859 129.05 81.634 128.463 81.4889 128.463C81.3433 128.463 80.8965 129.251 80.4956 130.214C80.0942 131.177 79.6011 131.978 79.3991 131.994C79.1967 132.01 78.1341 132.098 77.0371 132.188C75.5532 132.311 74.7275 132.08 73.811 131.283C72.9842 130.565 72.8037 130.506 73.261 131.104C73.8544 131.879 73.793 132.153 72.7848 133.23L71.6275 134.466H76.0778C80.0912 134.467 80.8287 134.312 83.5981 132.887C85.3658 131.977 86.5715 131.052 86.4393 130.706C86.0933 129.801 100.239 110.951 101.265 110.951C102.048 110.951 101.719 115.125 100.8 116.855C98.9186 120.395 89.0387 130.399 84.018 133.847C82.1755 135.112 81.5861 135.229 76.2892 135.377L70.5549 135.537L67.1891 138.866C63.8548 142.163 63.8234 142.22 63.8234 144.91C63.8234 146.403 64.4078 151.688 65.1218 156.653C66.7937 168.275 66.6571 170.496 63.9191 176.222C62.7568 178.652 61.8977 180.732 62.0099 180.845C62.3988 181.235 66.7588 171.726 67.2983 169.31C67.7127 167.454 67.6658 165.322 67.1009 160.304C66.694 156.687 66.2088 151.314 66.0223 148.364C65.6239 142.055 65.3801 142.321 72.0508 141.814C77.431 141.405 80.2588 140.462 84.4034 137.697C91.3618 133.055 101.295 122.228 103.841 116.51C105.065 113.761 104.814 111.989 102.512 107.125C99.1919 100.109 96.1786 96.9576 91.2965 95.3941C90.3102 95.0783 89.2785 94.6055 89.0043 94.3439C88.2708 93.6429 94.9345 96.2196 96.4743 97.2322C99.6735 99.3356 105.181 109.127 105.595 113.446L105.821 115.8L171.459 116.136C269.152 116.635 365.364 117.407 372.85 117.753L379.456 118.058L380.371 120.133C381.673 123.088 384.327 125.243 387.521 125.941C388.982 126.26 393.432 126.599 397.408 126.694C404.88 126.874 404.561 126.81 393.745 125.965C385.524 125.323 383.487 124.494 381.77 121.094C380.594 118.765 380.572 118.568 381.322 117.015C382.886 113.776 384.754 112.905 391.289 112.375C400.543 111.623 426.215 113.054 428.849 114.468C429.979 115.074 432.312 117.869 432.315 118.62C432.317 119.056 437.131 119.233 451.138 119.311C475.128 119.443 557.562 121.115 606.834 122.469C644.177 123.495 674.42 124.728 717.281 126.971C738.708 128.093 749.384 128.429 760.662 128.335C775.268 128.215 775.773 128.244 782.103 129.576C790.085 131.255 793.956 131.715 808.494 132.713L819.926 133.498L830.434 141.468C836.213 145.85 843.271 151.23 846.118 153.423C855.169 160.393 854.463 160.165 885.818 166.231C896.514 168.3 905.559 170.161 905.918 170.366C906.278 170.572 907.078 172.255 907.698 174.106C908.922 177.766 911.8 182.342 913.564 183.435C914.324 183.906 914.096 183.446 912.84 181.973C910.759 179.534 908.986 175.311 908.649 171.991C908.504 170.561 909.064 166.542 910.184 160.984C911.154 156.168 912.227 150.123 912.568 147.55L913.187 142.872L911.968 141.891C907.884 138.602 896.913 132.148 885.4 126.262C855.39 110.92 822.051 101.461 784.845 97.7351C770.816 96.3297 734.136 94.2038 698.333 92.7198C664.11 91.3019 661.424 91.2664 655.7 92.1584C645.149 93.803 643.274 93.9716 632.193 94.2763L620.904 94.587L616.736 91.5731C594.623 75.5832 560.067 55.7012 526.18 39.4712C517.899 35.5051 517.188 34.7506 520.321 33.2511C521.281 32.7918 522.066 32.237 522.066 32.0178C522.066 31.1633 496 24.7916 484.918 22.9369C468.577 20.2021 456.636 19.3651 435.803 19.4932C427.987 19.5412 420.246 19.6488 418.6 19.7323ZM464.973 32.9384C502.108 35.5927 530.295 45.6087 572.927 71.2989C584.866 78.4936 607.371 93.4723 607.043 94.0057C606.896 94.2448 603.855 94.4404 600.286 94.4404H593.797L594.859 95.7948C595.53 96.6514 595.819 97.5525 595.645 98.2469C595.378 99.3166 595.518 99.3531 600.978 99.6478C604.061 99.8144 619.711 100.178 635.754 100.456C692.653 101.442 742.082 103.254 765.544 105.214C809.051 108.848 842.577 116.145 879.422 130C889.896 133.939 898.642 137.526 898.388 137.781C898.292 137.878 895.648 136.919 892.514 135.65C858.754 121.979 824.468 113.077 788.834 108.732C753.723 104.45 711.232 102.912 552.732 100.185C527.776 99.7559 498.045 99.2326 486.663 99.0219C470.229 98.7182 476.455 98.6447 516.913 98.6662C544.931 98.6812 568.036 98.5121 568.258 98.2909C569.005 97.5425 567.208 96.9576 564.141 96.9496C560.382 96.9401 553.713 95.8038 549.449 94.4464C545.39 93.1541 536.532 92.7894 476.441 91.44C427.703 90.3458 397.882 89.5217 388.697 89.0154L382.728 88.6867L377.594 75.4281C368.253 51.3064 364.323 40.3813 364.81 39.8929C366.372 38.3249 402.465 33.886 421.592 32.9099C427.351 32.6162 433.41 32.298 435.055 32.2029C439.557 31.9428 457.065 32.3731 464.973 32.9384ZM316.131 34.4784C299.801 38.0528 271.921 45.0403 256.545 49.4136C232.496 56.2531 183.104 71.6996 183.621 72.219C183.745 72.3436 192.911 69.6468 203.99 66.2266C247.24 52.8744 289.683 41.6116 318.278 35.8979C320.068 35.5401 321.1 35.0963 320.982 34.7356C320.731 33.9676 318.907 33.871 316.131 34.4784ZM521.852 34.564C521.05 35.1524 521.78 35.5521 528.364 38.1323C543.158 43.9296 567.242 55.4266 611.321 77.7336C626.816 85.5757 639.27 91.7777 638.996 91.517C635.961 88.6297 548.425 43.8595 532.893 37.2507C524.732 33.7785 523.373 33.4478 521.852 34.564ZM364.919 46.0339C371.99 66.0645 379.462 88.0983 379.256 88.3054C378.404 89.1595 309.505 84.5615 295.189 82.6958C286.294 81.536 281.836 79.173 275.224 72.1114C270.822 67.4093 269.363 64.2878 270.949 62.967C272.944 61.3059 293.961 54.9557 313.465 50.1211C323.077 47.7386 359.644 40.0731 362.006 39.9455C362.526 39.9175 363.42 41.7857 364.919 46.0339ZM76.2892 55.5591C76.2892 56.4262 79.649 59.4176 80.6228 59.4176C81.7587 59.4176 87.7931 65.5551 93.8789 72.9004C102.377 83.1566 104.568 85.355 106.951 86.0139C111.452 87.2583 144.646 87.3603 146.751 86.136C147.556 85.6682 147.167 85.0688 143.157 80.5969C138.283 75.1614 134.52 71.9958 131.388 70.696C130.291 70.2407 124.345 68.9894 118.174 67.9157C102.299 65.1524 89.9392 62.5652 90.401 62.1024C90.5047 61.9983 93.0931 62.4806 96.1527 63.1736C102.85 64.6906 122.218 68.0353 122.524 67.7276C122.728 67.5239 121.428 67.2212 111.318 65.1179C109.193 64.6761 103.527 62.9665 98.7276 61.3194C83.5592 56.114 81.1025 55.3475 78.6667 55.0578C76.721 54.8267 76.2892 54.9177 76.2892 55.5591ZM89.0043 61.419C89.662 61.7026 89.7468 61.8582 89.2536 61.8763C88.8422 61.8918 88.1691 61.6856 87.7577 61.419C86.8462 60.8281 87.6336 60.8281 89.0043 61.419ZM136.125 72.2275C137.359 73.2566 139.94 75.7498 141.859 77.7676C143.779 79.7854 145.616 81.4355 145.941 81.434C146.266 81.433 149.153 80.4989 152.356 79.3581C156.094 78.0273 157.935 77.1462 157.496 76.8995C156.971 76.6048 141.855 72.4031 134.878 70.6124C134.285 70.4603 134.788 71.1133 136.125 72.2275ZM548.775 75.8033C547.114 78.339 546.526 81.2584 546.511 87.0476L546.499 91.9133L548.055 92.7208C551.115 94.3078 558.905 95.9414 563.415 95.9414H567.738L569.686 97.9427L571.633 99.944L580.881 99.941C590.206 99.9385 593.252 99.5423 594.373 98.1869C594.863 97.595 594.819 97.1932 594.152 96.1716C593.178 94.6806 592.047 94.1938 588.634 93.7965L586.141 93.5063L589.33 94.9838C593.031 96.6979 593.209 97.3528 589.601 95.9829C588.246 95.4686 584.894 94.6761 582.151 94.2218C574.299 92.9209 566.626 91.3599 565.914 90.9181C565.378 90.5854 565.378 90.3748 565.915 89.7254C566.273 89.2916 566.791 88.9369 567.065 88.9369C567.353 88.9369 567.311 89.2425 566.968 89.6583C566.263 90.5094 567.654 90.9687 574.423 92.1209C582.69 93.5273 583.933 93.6164 583.612 92.7788C583.43 92.3015 583.895 91.6006 584.875 90.8731C586.296 89.8189 586.345 89.6928 585.458 89.3636C584.162 88.8828 574.35 87.9572 565.447 87.4759C560.37 87.2017 559.359 87.0631 562.052 87.0106C564.161 86.9691 566.014 86.7294 566.169 86.4777C566.591 85.7923 560.073 80.0856 557.247 78.6672C555.89 77.9862 555.105 77.4314 555.502 77.4339C556.891 77.4429 561.241 80.3398 564.721 83.5744L568.234 86.8385L576.688 87.5645C581.339 87.9637 585.244 88.2039 585.367 88.0978C585.827 87.7005 576.554 78.7397 573.802 76.9225C570.162 74.5195 566.901 73.9271 557.311 73.9271H550.004L548.775 75.8033ZM551.735 76.4287C551.904 76.7039 551.819 76.929 551.544 76.929C551.27 76.929 550.907 76.7039 550.738 76.4287C550.568 76.1535 550.654 75.9284 550.928 75.9284C551.202 75.9284 551.565 76.1535 551.735 76.4287ZM583.429 83.9636C587.82 89.217 588.161 90.1056 586.141 91.0292C584.13 91.9488 584.668 92.3181 588.509 92.6528C590.497 92.8264 593.47 93.0956 595.116 93.2512C598.106 93.5333 598.107 93.5328 597.11 92.5357C596.227 91.6521 583.829 82.7999 581.902 81.6771C581.491 81.4375 582.178 82.4666 583.429 83.9636ZM98.5925 88.2384C98.427 88.4045 97.9966 88.4225 97.6371 88.2779C97.2392 88.1183 97.3574 87.9997 97.9383 87.9757C98.4639 87.9542 98.758 88.0723 98.5925 88.2384ZM107.703 89.5352C111.405 90.1496 114.098 90.714 113.687 90.7896C113.275 90.8651 109.797 90.3933 105.958 89.7409C102.118 89.0889 99.4257 88.5246 99.9742 88.4866C100.523 88.449 104.001 88.9208 107.703 89.5352ZM272.75 89.9595C287.197 90.9842 309.985 94.0087 327.492 97.2253C335.758 98.7442 331.934 98.5691 322.281 96.9871C303.918 93.9766 284.508 91.8367 266.767 90.8661C255.979 90.2762 209.724 90.4974 151.333 91.418C134.33 91.6856 119.184 91.7367 117.676 91.5305C116.101 91.3154 131.927 90.8731 154.824 90.4924C176.764 90.1276 194.808 89.7409 194.922 89.6333C195.392 89.19 266.08 89.4867 272.75 89.9595ZM389.099 113.982C385.358 114.47 383.099 115.575 382.317 117.296C381.781 118.477 381.877 118.713 383.421 120.006C386.15 122.292 388.512 122.507 409.249 122.351L428.244 122.208L429.572 120.958L430.9 119.707L428.989 119.382C427.937 119.203 418.999 118.865 409.126 118.631L391.175 118.206L410.871 117.956L430.567 117.706L428.383 116.537C427.183 115.894 424.775 115.145 423.033 114.873C420.185 114.428 419.675 114.486 417.963 115.452C416.192 116.45 415.487 116.514 407.776 116.365L399.491 116.205L398.414 114.829C397.47 113.624 397.015 113.461 394.754 113.516C393.334 113.551 390.789 113.76 389.099 113.982ZM430.037 122.584L428.573 124.21L430.193 122.74C431.085 121.932 431.814 121.2 431.814 121.114C431.814 120.728 431.403 121.068 430.037 122.584ZM82.7714 126.461C82.1855 127.287 81.8185 127.962 81.9556 127.962C82.0928 127.962 82.6841 127.287 83.27 126.461C83.8559 125.636 84.2229 124.96 84.0858 124.96C83.9487 124.96 83.3573 125.636 82.7714 126.461ZM425.83 125.461C425.381 125.752 425.319 125.948 425.676 125.953C426.003 125.957 426.409 125.736 426.578 125.461C426.961 124.839 426.788 124.839 425.83 125.461ZM671.282 126.292C670.176 126.74 670.61 128.185 672.903 131.687C674.137 133.572 675.146 135.311 675.146 135.55C675.146 137.097 664.938 155.529 653.77 174.149C650.169 180.151 647.223 185.286 647.223 185.559C647.223 185.838 648.255 185.988 649.591 185.902L651.96 185.75L654.329 181.747C655.631 179.546 657.597 176.355 658.696 174.657C659.796 172.96 661.232 170.409 661.887 168.99C662.542 167.571 663.568 165.887 664.166 165.247C664.765 164.608 666.203 162.205 667.363 159.908C668.523 157.61 670.345 154.379 671.413 152.728C672.481 151.077 673.814 148.601 674.375 147.225C674.937 145.849 675.988 143.935 676.711 142.972C678.334 140.809 680.133 137.269 680.133 136.239C680.133 135.816 679.316 134.563 678.318 133.454C677.319 132.345 676.62 131.32 676.764 131.175C677.147 130.791 680.119 134.531 680.444 135.806C680.758 137.041 673.979 150.815 671.366 154.249C670.515 155.367 669.667 156.888 669.482 157.629C669.002 159.548 659.71 175.81 658.068 177.603C657.314 178.427 656.697 179.309 656.697 179.563C656.697 179.817 656.021 181.369 655.194 183.013C654.367 184.656 653.869 186 654.088 186C654.495 186 663.78 170.273 670.136 158.819C676.102 148.065 681.629 137.076 681.629 135.966C681.629 135.314 679.953 133.211 677.222 130.437C672.89 126.036 672.532 125.786 671.282 126.292ZM416.232 126.814C416.848 126.934 417.859 126.934 418.475 126.814C419.092 126.695 418.588 126.597 417.354 126.597C416.119 126.597 415.615 126.695 416.232 126.814ZM852.886 135.989C872.933 137.57 874.885 137.806 884.323 139.776C892.171 141.415 896.04 142.498 896.04 143.057C896.04 143.763 891.757 152.968 889.576 156.949C887.63 160.5 887.623 160.531 888.711 160.943C895.9 163.661 902.123 166.243 902.342 166.598C902.491 166.841 901.751 166.665 900.698 166.209C892.95 162.849 887.755 161.649 873.602 159.953C868.803 159.377 861.864 158.348 858.184 157.666L851.491 156.425L845.718 151.63C842.542 148.992 837.095 144.558 833.612 141.776C825.329 135.16 824.805 133.662 830.969 134.223C832.614 134.373 842.477 135.168 852.886 135.989ZM241.153 135.477C231.936 136.308 222.22 139.349 212.673 144.392C199.364 151.423 188.178 162.735 180.812 176.615C177.745 182.394 178.329 181.853 183.107 174.493C187.724 167.378 192.151 162.175 197.813 157.209C227.156 131.468 270.906 131.118 299.974 156.393C306.367 161.951 313.443 171.125 317.35 178.92C318.088 180.392 318.807 181.481 318.949 181.338C319.369 180.917 314.896 172.017 312.364 168.238C301.242 151.636 285.423 140.909 265.52 136.475C260.208 135.291 248.525 134.813 241.153 135.477ZM827.728 135.411C827.728 135.709 828.616 136.543 829.701 137.264C831.506 138.463 832.434 138.635 840.547 139.279C845.426 139.667 849.667 140.074 849.972 140.185C850.276 140.295 850.791 141.445 851.116 142.74C851.896 145.846 853.775 149.507 855.745 151.759L857.338 153.578L855.427 152.278C854.373 151.56 852.815 150.977 851.95 150.977C851.089 150.977 849.156 150.661 847.657 150.273L844.931 149.569L846.676 151.066C848.96 153.025 850.038 153.42 855.402 154.269C857.87 154.661 860.408 155.1 861.041 155.247C861.915 155.45 861.483 154.813 859.259 152.62C856.284 149.687 853.88 145.495 853.369 142.355C853.19 141.25 853.438 141.613 854.134 143.472C855.494 147.104 857.756 150.727 858.664 150.727C859.539 150.727 860.032 147.587 860.095 141.596C860.134 137.941 860.036 137.468 859.243 137.468C857.997 137.468 834.101 135.559 830.595 135.179C828.678 134.971 827.728 135.048 827.728 135.411ZM759.664 137.503C746.77 138.518 734.754 142.855 723.264 150.643C717.453 154.581 707.715 164.358 703.993 169.99C701.423 173.879 696.291 183.498 696.787 183.498C696.902 183.498 697.916 181.817 699.04 179.761C703.976 170.738 715.172 158.41 723.302 153.045C731.376 147.718 744.672 142.227 752.434 141.013C758.454 140.071 768.401 139.806 773.85 140.443C796.988 143.144 817.475 156.827 830.221 178.092C833.418 183.425 833.41 182.599 830.207 176.543C820.199 157.627 802.412 143.976 781.275 138.992C777.313 138.058 767.994 136.888 765.72 137.039C765.132 137.079 762.407 137.287 759.664 137.503ZM903.52 140.246C903.52 140.383 902.847 140.147 902.024 139.72C901.201 139.293 900.528 138.831 900.528 138.694C900.528 138.556 901.201 138.793 902.024 139.22C902.847 139.646 903.52 140.108 903.52 140.246ZM870.835 142.69C869.756 144.34 865.634 154.525 865.628 155.552C865.624 156.384 866.59 156.981 867.94 156.981C869.083 156.981 875.043 142.583 874.235 141.772C873.503 141.038 871.573 141.558 870.835 142.69ZM878.379 142.927C877.278 144.148 873.583 152.716 873.237 154.851C872.961 156.555 873.719 157.982 874.901 157.982C875.747 157.982 877.358 154.753 879.85 148.065C881.466 143.728 881.659 142.828 881.054 142.444C879.971 141.756 879.331 141.872 878.379 142.927ZM884.894 143.72C883.841 144.778 880.084 154.735 880.084 156.471C880.084 158.306 881.895 159.095 882.909 157.703C884.003 156.202 888.631 143.991 888.306 143.463C887.846 142.717 885.736 142.876 884.894 143.72ZM873.103 184.418C871.951 184.782 872.007 184.837 873.851 185.15C877.082 185.699 889.038 185.527 887.606 184.953C886.041 184.325 874.723 183.909 873.103 184.418Z" fill="url(#paint0_linear_5_103)"/>
<path d="M208.624 260V170.4H225.776L278.64 234.912H270.32V170.4H290.8V260H273.776L220.784 195.488H229.104V260H208.624ZM344.767 261.024C336.916 261.024 330.004 259.488 324.031 256.416C318.143 253.344 313.578 249.163 310.335 243.872C307.092 238.496 305.471 232.395 305.471 225.568C305.471 218.656 307.05 212.555 310.207 207.264C313.45 201.888 317.844 197.707 323.391 194.72C328.938 191.648 335.21 190.112 342.207 190.112C348.948 190.112 355.007 191.563 360.383 194.464C365.844 197.28 370.154 201.376 373.311 206.752C376.468 212.043 378.047 218.4 378.047 225.824C378.047 226.592 378.004 227.488 377.919 228.512C377.834 229.451 377.748 230.347 377.663 231.2H321.727V219.552H367.167L359.487 223.008C359.487 219.424 358.762 216.309 357.311 213.664C355.86 211.019 353.855 208.971 351.295 207.52C348.735 205.984 345.748 205.216 342.335 205.216C338.922 205.216 335.892 205.984 333.247 207.52C330.687 208.971 328.682 211.061 327.231 213.792C325.78 216.437 325.055 219.595 325.055 223.264V226.336C325.055 230.091 325.866 233.419 327.487 236.32C329.194 239.136 331.54 241.312 334.527 242.848C337.599 244.299 341.183 245.024 345.279 245.024C348.948 245.024 352.148 244.469 354.879 243.36C357.695 242.251 360.255 240.587 362.559 238.368L373.183 249.888C370.026 253.472 366.058 256.245 361.279 258.208C356.5 260.085 350.996 261.024 344.767 261.024ZM405.835 260L381.003 191.136H399.819L420.427 250.4H411.467L432.971 191.136H449.867L470.731 250.4H461.771L483.019 191.136H500.683L475.723 260H456.395L438.091 209.184H443.979L425.035 260H405.835Z" fill="#DEDEDE"/>
<path d="M538.88 261.536C529.75 261.536 521.856 259.915 515.2 256.672C508.63 253.344 503.552 248.779 499.968 242.976C496.384 237.088 494.592 230.304 494.592 222.624C494.592 215.029 495.915 207.947 498.56 201.376C501.291 194.805 505.088 189.131 509.952 184.352C514.902 179.488 520.747 175.691 527.488 172.96C534.315 170.229 541.91 168.864 550.272 168.864C558.294 168.864 565.376 170.229 571.52 172.96C577.664 175.691 582.315 179.616 585.472 184.736L570.496 197.024C568.192 193.611 565.248 191.008 561.664 189.216C558.08 187.424 553.814 186.528 548.864 186.528C543.83 186.528 539.264 187.424 535.168 189.216C531.072 190.923 527.531 193.397 524.544 196.64C521.643 199.797 519.424 203.509 517.888 207.776C516.352 212.043 515.584 216.565 515.584 221.344C515.584 225.867 516.566 229.835 518.528 233.248C520.491 236.576 523.35 239.179 527.104 241.056C530.859 242.933 535.382 243.872 540.672 243.872C545.28 243.872 549.59 243.061 553.6 241.44C557.611 239.733 561.238 237.088 564.48 233.504L576.768 246.048C572.075 251.509 566.486 255.477 560 257.952C553.6 260.341 546.56 261.536 538.88 261.536ZM613.1 261.024C607.81 261.024 602.903 259.829 598.38 257.44C593.858 254.965 590.231 251.424 587.5 246.816C584.77 242.208 583.404 236.661 583.404 230.176C583.404 224.373 584.343 219.04 586.22 214.176C588.183 209.312 590.914 205.088 594.412 201.504C597.911 197.92 601.964 195.147 606.572 193.184C611.18 191.136 616.13 190.112 621.42 190.112C627.138 190.112 632.044 191.179 636.14 193.312C640.236 195.445 643.266 198.773 645.228 203.296C647.276 207.733 648.002 213.493 647.404 220.576C646.978 228.683 645.314 235.808 642.412 241.952C639.511 248.011 635.586 252.704 630.636 256.032C625.772 259.36 619.927 261.024 613.1 261.024ZM619.244 244.512C623.17 244.512 626.626 243.573 629.612 241.696C632.684 239.733 635.074 237.088 636.78 233.76C638.572 230.347 639.468 226.379 639.468 221.856C639.468 217.163 638.06 213.451 635.244 210.72C632.514 207.989 628.674 206.624 623.724 206.624C619.884 206.624 616.428 207.605 613.356 209.568C610.284 211.445 607.852 214.091 606.06 217.504C604.354 220.832 603.5 224.757 603.5 229.28C603.5 233.973 604.866 237.685 607.596 240.416C610.412 243.147 614.295 244.512 619.244 244.512ZM632.94 260L635.628 246.304L640.108 225.824L642.796 205.344L645.612 191.136H665.58L651.884 260H632.94ZM670.371 260L684.067 191.136H703.011L699.043 210.72L697.251 205.088C700.323 199.541 704.334 195.659 709.283 193.44C714.233 191.221 720.163 190.112 727.075 190.112L723.491 208.544C722.638 208.459 721.827 208.416 721.059 208.416C720.377 208.331 719.651 208.288 718.883 208.288C712.995 208.288 708.174 209.739 704.419 212.64C700.75 215.541 698.275 220.235 696.995 226.72L690.339 260H670.371Z" fill="url(#paint1_linear_5_103)"/>
<path d="M164.25 290V274.1H158.1V272.5H172.25V274.1H166.1V290H164.25ZM174.489 290V276.875H176.189V280.45L176.014 279.825C176.38 278.825 176.997 278.067 177.864 277.55C178.73 277.017 179.805 276.75 181.089 276.75V278.475C181.022 278.475 180.955 278.475 180.889 278.475C180.822 278.458 180.755 278.45 180.689 278.45C179.305 278.45 178.222 278.875 177.439 279.725C176.655 280.558 176.264 281.75 176.264 283.3V290H174.489ZM191.576 290V287.1L191.501 286.625V281.775C191.501 280.658 191.184 279.8 190.551 279.2C189.934 278.6 189.009 278.3 187.776 278.3C186.926 278.3 186.118 278.442 185.351 278.725C184.584 279.008 183.934 279.383 183.401 279.85L182.601 278.525C183.268 277.958 184.068 277.525 185.001 277.225C185.934 276.908 186.918 276.75 187.951 276.75C189.651 276.75 190.959 277.175 191.876 278.025C192.809 278.858 193.276 280.133 193.276 281.85V290H191.576ZM187.051 290.125C186.068 290.125 185.209 289.967 184.476 289.65C183.759 289.317 183.209 288.867 182.826 288.3C182.443 287.717 182.251 287.05 182.251 286.3C182.251 285.617 182.409 285 182.726 284.45C183.059 283.883 183.593 283.433 184.326 283.1C185.076 282.75 186.076 282.575 187.326 282.575H191.851V283.9H187.376C186.109 283.9 185.226 284.125 184.726 284.575C184.243 285.025 184.001 285.583 184.001 286.25C184.001 287 184.293 287.6 184.876 288.05C185.459 288.5 186.276 288.725 187.326 288.725C188.326 288.725 189.184 288.5 189.901 288.05C190.634 287.583 191.168 286.917 191.501 286.05L191.901 287.275C191.568 288.142 190.984 288.833 190.151 289.35C189.334 289.867 188.301 290.125 187.051 290.125ZM204.797 276.75C205.864 276.75 206.797 276.958 207.597 277.375C208.414 277.775 209.047 278.392 209.497 279.225C209.964 280.058 210.197 281.108 210.197 282.375V290H208.422V282.55C208.422 281.167 208.072 280.125 207.372 279.425C206.689 278.708 205.722 278.35 204.472 278.35C203.539 278.35 202.722 278.542 202.022 278.925C201.339 279.292 200.805 279.833 200.422 280.55C200.055 281.25 199.872 282.1 199.872 283.1V290H198.097V276.875H199.797V280.475L199.522 279.8C199.939 278.85 200.605 278.108 201.522 277.575C202.439 277.025 203.53 276.75 204.797 276.75ZM218.517 290.125C217.433 290.125 216.408 289.975 215.442 289.675C214.475 289.358 213.717 288.967 213.167 288.5L213.967 287.1C214.5 287.5 215.183 287.85 216.017 288.15C216.85 288.433 217.725 288.575 218.642 288.575C219.892 288.575 220.792 288.383 221.342 288C221.892 287.6 222.167 287.075 222.167 286.425C222.167 285.942 222.008 285.567 221.692 285.3C221.392 285.017 220.992 284.808 220.492 284.675C219.992 284.525 219.433 284.4 218.817 284.3C218.2 284.2 217.583 284.083 216.967 283.95C216.367 283.817 215.817 283.625 215.317 283.375C214.817 283.108 214.408 282.75 214.092 282.3C213.792 281.85 213.642 281.25 213.642 280.5C213.642 279.783 213.842 279.142 214.242 278.575C214.642 278.008 215.225 277.567 215.992 277.25C216.775 276.917 217.725 276.75 218.842 276.75C219.692 276.75 220.542 276.867 221.392 277.1C222.242 277.317 222.942 277.608 223.492 277.975L222.717 279.4C222.133 279 221.508 278.717 220.842 278.55C220.175 278.367 219.508 278.275 218.842 278.275C217.658 278.275 216.783 278.483 216.217 278.9C215.667 279.3 215.392 279.817 215.392 280.45C215.392 280.95 215.542 281.342 215.842 281.625C216.158 281.908 216.567 282.133 217.067 282.3C217.583 282.45 218.142 282.575 218.742 282.675C219.358 282.775 219.967 282.9 220.567 283.05C221.183 283.183 221.742 283.375 222.242 283.625C222.758 283.858 223.167 284.2 223.467 284.65C223.783 285.083 223.942 285.658 223.942 286.375C223.942 287.142 223.725 287.808 223.292 288.375C222.875 288.925 222.258 289.358 221.442 289.675C220.642 289.975 219.667 290.125 218.517 290.125ZM227.499 290V275.225C227.499 274.058 227.84 273.117 228.524 272.4C229.207 271.683 230.19 271.325 231.474 271.325C231.974 271.325 232.457 271.392 232.924 271.525C233.39 271.658 233.782 271.867 234.099 272.15L233.499 273.475C233.249 273.258 232.957 273.1 232.624 273C232.29 272.883 231.932 272.825 231.549 272.825C230.799 272.825 230.224 273.033 229.824 273.45C229.424 273.867 229.224 274.483 229.224 275.3V277.3L229.274 278.125V290H227.499ZM225.149 278.35V276.875H233.274V278.35H225.149ZM240.801 290.125C239.534 290.125 238.392 289.842 237.376 289.275C236.376 288.692 235.584 287.9 235.001 286.9C234.417 285.883 234.126 284.725 234.126 283.425C234.126 282.108 234.417 280.95 235.001 279.95C235.584 278.95 236.376 278.167 237.376 277.6C238.376 277.033 239.517 276.75 240.801 276.75C242.101 276.75 243.251 277.033 244.251 277.6C245.267 278.167 246.059 278.95 246.626 279.95C247.209 280.95 247.501 282.108 247.501 283.425C247.501 284.725 247.209 285.883 246.626 286.9C246.059 287.9 245.267 288.692 244.251 289.275C243.234 289.842 242.084 290.125 240.801 290.125ZM240.801 288.55C241.751 288.55 242.592 288.342 243.326 287.925C244.059 287.492 244.634 286.892 245.051 286.125C245.484 285.342 245.701 284.442 245.701 283.425C245.701 282.392 245.484 281.492 245.051 280.725C244.634 279.958 244.059 279.367 243.326 278.95C242.592 278.517 241.759 278.3 240.826 278.3C239.892 278.3 239.059 278.517 238.326 278.95C237.592 279.367 237.009 279.958 236.576 280.725C236.142 281.492 235.926 282.392 235.926 283.425C235.926 284.442 236.142 285.342 236.576 286.125C237.009 286.892 237.592 287.492 238.326 287.925C239.059 288.342 239.884 288.55 240.801 288.55ZM251.124 290V276.875H252.824V280.45L252.649 279.825C253.016 278.825 253.633 278.067 254.499 277.55C255.366 277.017 256.441 276.75 257.724 276.75V278.475C257.658 278.475 257.591 278.475 257.524 278.475C257.458 278.458 257.391 278.45 257.324 278.45C255.941 278.45 254.858 278.875 254.074 279.725C253.291 280.558 252.899 281.75 252.899 283.3V290H251.124ZM277.363 276.75C278.43 276.75 279.355 276.958 280.138 277.375C280.938 277.775 281.555 278.392 281.988 279.225C282.438 280.058 282.663 281.108 282.663 282.375V290H280.888V282.55C280.888 281.167 280.555 280.125 279.888 279.425C279.238 278.708 278.313 278.35 277.113 278.35C276.213 278.35 275.43 278.542 274.763 278.925C274.113 279.292 273.605 279.833 273.238 280.55C272.888 281.25 272.713 282.1 272.713 283.1V290H270.938V282.55C270.938 281.167 270.605 280.125 269.938 279.425C269.272 278.708 268.338 278.35 267.138 278.35C266.255 278.35 265.48 278.542 264.813 278.925C264.147 279.292 263.63 279.833 263.263 280.55C262.913 281.25 262.738 282.1 262.738 283.1V290H260.963V276.875H262.663V280.425L262.388 279.8C262.788 278.85 263.43 278.108 264.313 277.575C265.213 277.025 266.272 276.75 267.488 276.75C268.772 276.75 269.863 277.075 270.763 277.725C271.663 278.358 272.247 279.317 272.513 280.6L271.813 280.325C272.197 279.258 272.872 278.4 273.838 277.75C274.822 277.083 275.997 276.75 277.363 276.75ZM295.702 290V287.1L295.627 286.625V281.775C295.627 280.658 295.31 279.8 294.677 279.2C294.06 278.6 293.135 278.3 291.902 278.3C291.052 278.3 290.244 278.442 289.477 278.725C288.71 279.008 288.06 279.383 287.527 279.85L286.727 278.525C287.394 277.958 288.194 277.525 289.127 277.225C290.06 276.908 291.044 276.75 292.077 276.75C293.777 276.75 295.085 277.175 296.002 278.025C296.935 278.858 297.402 280.133 297.402 281.85V290H295.702ZM291.177 290.125C290.194 290.125 289.335 289.967 288.602 289.65C287.885 289.317 287.335 288.867 286.952 288.3C286.569 287.717 286.377 287.05 286.377 286.3C286.377 285.617 286.535 285 286.852 284.45C287.185 283.883 287.719 283.433 288.452 283.1C289.202 282.75 290.202 282.575 291.452 282.575H295.977V283.9H291.502C290.235 283.9 289.352 284.125 288.852 284.575C288.369 285.025 288.127 285.583 288.127 286.25C288.127 287 288.419 287.6 289.002 288.05C289.585 288.5 290.402 288.725 291.452 288.725C292.452 288.725 293.31 288.5 294.027 288.05C294.76 287.583 295.294 286.917 295.627 286.05L296.027 287.275C295.694 288.142 295.11 288.833 294.277 289.35C293.46 289.867 292.427 290.125 291.177 290.125ZM308.923 276.75C309.99 276.75 310.923 276.958 311.723 277.375C312.54 277.775 313.173 278.392 313.623 279.225C314.09 280.058 314.323 281.108 314.323 282.375V290H312.548V282.55C312.548 281.167 312.198 280.125 311.498 279.425C310.815 278.708 309.848 278.35 308.598 278.35C307.665 278.35 306.848 278.542 306.148 278.925C305.465 279.292 304.931 279.833 304.548 280.55C304.181 281.25 303.998 282.1 303.998 283.1V290H302.223V276.875H303.923V280.475L303.648 279.8C304.065 278.85 304.731 278.108 305.648 277.575C306.565 277.025 307.656 276.75 308.923 276.75ZM324.343 290.125C323.093 290.125 321.968 289.842 320.968 289.275C319.984 288.708 319.209 287.925 318.643 286.925C318.076 285.908 317.793 284.742 317.793 283.425C317.793 282.092 318.076 280.925 318.643 279.925C319.209 278.925 319.984 278.15 320.968 277.6C321.968 277.033 323.093 276.75 324.343 276.75C325.493 276.75 326.518 277.008 327.418 277.525C328.334 278.042 329.059 278.8 329.593 279.8C330.143 280.783 330.418 281.992 330.418 283.425C330.418 284.842 330.151 286.05 329.618 287.05C329.084 288.05 328.359 288.817 327.443 289.35C326.543 289.867 325.509 290.125 324.343 290.125ZM324.468 288.55C325.401 288.55 326.234 288.342 326.968 287.925C327.718 287.492 328.301 286.892 328.718 286.125C329.151 285.342 329.368 284.442 329.368 283.425C329.368 282.392 329.151 281.492 328.718 280.725C328.301 279.958 327.718 279.367 326.968 278.95C326.234 278.517 325.401 278.3 324.468 278.3C323.551 278.3 322.726 278.517 321.993 278.95C321.259 279.367 320.676 279.958 320.243 280.725C319.809 281.492 319.593 282.392 319.593 283.425C319.593 284.442 319.809 285.342 320.243 286.125C320.676 286.892 321.259 287.492 321.993 287.925C322.726 288.342 323.551 288.55 324.468 288.55ZM329.418 290V286.05L329.593 283.4L329.343 280.75V271.45H331.118V290H329.418ZM341.411 290.125C340.144 290.125 339.003 289.842 337.986 289.275C336.986 288.692 336.194 287.9 335.611 286.9C335.028 285.883 334.736 284.725 334.736 283.425C334.736 282.108 335.028 280.95 335.611 279.95C336.194 278.95 336.986 278.167 337.986 277.6C338.986 277.033 340.128 276.75 341.411 276.75C342.711 276.75 343.861 277.033 344.861 277.6C345.878 278.167 346.669 278.95 347.236 279.95C347.819 280.95 348.111 282.108 348.111 283.425C348.111 284.725 347.819 285.883 347.236 286.9C346.669 287.9 345.878 288.692 344.861 289.275C343.844 289.842 342.694 290.125 341.411 290.125ZM341.411 288.55C342.361 288.55 343.203 288.342 343.936 287.925C344.669 287.492 345.244 286.892 345.661 286.125C346.094 285.342 346.311 284.442 346.311 283.425C346.311 282.392 346.094 281.492 345.661 280.725C345.244 279.958 344.669 279.367 343.936 278.95C343.203 278.517 342.369 278.3 341.436 278.3C340.503 278.3 339.669 278.517 338.936 278.95C338.203 279.367 337.619 279.958 337.186 280.725C336.753 281.492 336.536 282.392 336.536 283.425C336.536 284.442 336.753 285.342 337.186 286.125C337.619 286.892 338.203 287.492 338.936 287.925C339.669 288.342 340.494 288.55 341.411 288.55ZM361.803 290.125C360.719 290.125 359.694 289.975 358.728 289.675C357.761 289.358 357.003 288.967 356.453 288.5L357.253 287.1C357.786 287.5 358.469 287.85 359.303 288.15C360.136 288.433 361.011 288.575 361.928 288.575C363.178 288.575 364.078 288.383 364.628 288C365.178 287.6 365.453 287.075 365.453 286.425C365.453 285.942 365.294 285.567 364.978 285.3C364.678 285.017 364.278 284.808 363.778 284.675C363.278 284.525 362.719 284.4 362.103 284.3C361.486 284.2 360.869 284.083 360.253 283.95C359.653 283.817 359.103 283.625 358.603 283.375C358.103 283.108 357.694 282.75 357.378 282.3C357.078 281.85 356.928 281.25 356.928 280.5C356.928 279.783 357.128 279.142 357.528 278.575C357.928 278.008 358.511 277.567 359.278 277.25C360.061 276.917 361.011 276.75 362.128 276.75C362.978 276.75 363.828 276.867 364.678 277.1C365.528 277.317 366.228 277.608 366.778 277.975L366.003 279.4C365.419 279 364.794 278.717 364.128 278.55C363.461 278.367 362.794 278.275 362.128 278.275C360.944 278.275 360.069 278.483 359.503 278.9C358.953 279.3 358.678 279.817 358.678 280.45C358.678 280.95 358.828 281.342 359.128 281.625C359.444 281.908 359.853 282.133 360.353 282.3C360.869 282.45 361.428 282.575 362.028 282.675C362.644 282.775 363.253 282.9 363.853 283.05C364.469 283.183 365.028 283.375 365.528 283.625C366.044 283.858 366.453 284.2 366.753 284.65C367.069 285.083 367.228 285.658 367.228 286.375C367.228 287.142 367.011 287.808 366.578 288.375C366.161 288.925 365.544 289.358 364.728 289.675C363.928 289.975 362.953 290.125 361.803 290.125ZM376.06 290.125C374.693 290.125 373.493 289.842 372.46 289.275C371.426 288.692 370.618 287.9 370.035 286.9C369.451 285.883 369.16 284.725 369.16 283.425C369.16 282.125 369.435 280.975 369.985 279.975C370.551 278.975 371.318 278.192 372.285 277.625C373.268 277.042 374.368 276.75 375.585 276.75C376.818 276.75 377.91 277.033 378.86 277.6C379.826 278.15 380.585 278.933 381.135 279.95C381.685 280.95 381.96 282.108 381.96 283.425C381.96 283.508 381.951 283.6 381.935 283.7C381.935 283.783 381.935 283.875 381.935 283.975H370.51V282.65H380.985L380.285 283.175C380.285 282.225 380.076 281.383 379.66 280.65C379.26 279.9 378.71 279.317 378.01 278.9C377.31 278.483 376.501 278.275 375.585 278.275C374.685 278.275 373.876 278.483 373.16 278.9C372.443 279.317 371.885 279.9 371.485 280.65C371.085 281.4 370.885 282.258 370.885 283.225V283.5C370.885 284.5 371.101 285.383 371.535 286.15C371.985 286.9 372.601 287.492 373.385 287.925C374.185 288.342 375.093 288.55 376.11 288.55C376.91 288.55 377.651 288.408 378.335 288.125C379.035 287.842 379.635 287.408 380.135 286.825L381.135 287.975C380.551 288.675 379.818 289.208 378.935 289.575C378.068 289.942 377.11 290.125 376.06 290.125ZM390.998 290.125C389.881 290.125 388.906 289.917 388.073 289.5C387.239 289.083 386.589 288.458 386.123 287.625C385.673 286.792 385.448 285.75 385.448 284.5V276.875H387.223V284.3C387.223 285.7 387.564 286.758 388.248 287.475C388.948 288.175 389.923 288.525 391.173 288.525C392.089 288.525 392.881 288.342 393.548 287.975C394.231 287.592 394.748 287.042 395.098 286.325C395.464 285.608 395.648 284.75 395.648 283.75V276.875H397.423V290H395.723V286.4L395.998 287.05C395.581 288.017 394.931 288.775 394.048 289.325C393.181 289.858 392.164 290.125 390.998 290.125ZM412.438 290.125C411.354 290.125 410.329 289.975 409.363 289.675C408.396 289.358 407.638 288.967 407.088 288.5L407.888 287.1C408.421 287.5 409.104 287.85 409.938 288.15C410.771 288.433 411.646 288.575 412.563 288.575C413.813 288.575 414.713 288.383 415.263 288C415.813 287.6 416.088 287.075 416.088 286.425C416.088 285.942 415.929 285.567 415.613 285.3C415.313 285.017 414.913 284.808 414.413 284.675C413.913 284.525 413.354 284.4 412.738 284.3C412.121 284.2 411.504 284.083 410.888 283.95C410.288 283.817 409.738 283.625 409.238 283.375C408.738 283.108 408.329 282.75 408.013 282.3C407.713 281.85 407.563 281.25 407.563 280.5C407.563 279.783 407.763 279.142 408.163 278.575C408.563 278.008 409.146 277.567 409.913 277.25C410.696 276.917 411.646 276.75 412.763 276.75C413.613 276.75 414.463 276.867 415.313 277.1C416.163 277.317 416.863 277.608 417.413 277.975L416.638 279.4C416.054 279 415.429 278.717 414.763 278.55C414.096 278.367 413.429 278.275 412.763 278.275C411.579 278.275 410.704 278.483 410.138 278.9C409.588 279.3 409.313 279.817 409.313 280.45C409.313 280.95 409.463 281.342 409.763 281.625C410.079 281.908 410.488 282.133 410.988 282.3C411.504 282.45 412.063 282.575 412.663 282.675C413.279 282.775 413.888 282.9 414.488 283.05C415.104 283.183 415.663 283.375 416.163 283.625C416.679 283.858 417.088 284.2 417.388 284.65C417.704 285.083 417.863 285.658 417.863 286.375C417.863 287.142 417.646 287.808 417.213 288.375C416.796 288.925 416.179 289.358 415.363 289.675C414.563 289.975 413.588 290.125 412.438 290.125ZM426.47 290.125C425.203 290.125 424.061 289.842 423.045 289.275C422.045 288.692 421.253 287.9 420.67 286.9C420.086 285.883 419.795 284.725 419.795 283.425C419.795 282.108 420.086 280.95 420.67 279.95C421.253 278.95 422.045 278.167 423.045 277.6C424.045 277.033 425.186 276.75 426.47 276.75C427.77 276.75 428.92 277.033 429.92 277.6C430.936 278.167 431.728 278.95 432.295 279.95C432.878 280.95 433.17 282.108 433.17 283.425C433.17 284.725 432.878 285.883 432.295 286.9C431.728 287.9 430.936 288.692 429.92 289.275C428.903 289.842 427.753 290.125 426.47 290.125ZM426.47 288.55C427.42 288.55 428.261 288.342 428.995 287.925C429.728 287.492 430.303 286.892 430.72 286.125C431.153 285.342 431.37 284.442 431.37 283.425C431.37 282.392 431.153 281.492 430.72 280.725C430.303 279.958 429.728 279.367 428.995 278.95C428.261 278.517 427.428 278.3 426.495 278.3C425.561 278.3 424.728 278.517 423.995 278.95C423.261 279.367 422.678 279.958 422.245 280.725C421.811 281.492 421.595 282.392 421.595 283.425C421.595 284.442 421.811 285.342 422.245 286.125C422.678 286.892 423.261 287.492 423.995 287.925C424.728 288.342 425.553 288.55 426.47 288.55ZM443.493 276.75C444.56 276.75 445.493 276.958 446.293 277.375C447.11 277.775 447.743 278.392 448.193 279.225C448.66 280.058 448.893 281.108 448.893 282.375V290H447.118V282.55C447.118 281.167 446.768 280.125 446.068 279.425C445.385 278.708 444.418 278.35 443.168 278.35C442.235 278.35 441.418 278.542 440.718 278.925C440.035 279.292 439.502 279.833 439.118 280.55C438.752 281.25 438.568 282.1 438.568 283.1V290H436.793V276.875H438.493V280.475L438.218 279.8C438.635 278.85 439.302 278.108 440.218 277.575C441.135 277.025 442.227 276.75 443.493 276.75ZM460.388 276.75C461.455 276.75 462.388 276.958 463.188 277.375C464.005 277.775 464.638 278.392 465.088 279.225C465.555 280.058 465.788 281.108 465.788 282.375V290H464.013V282.55C464.013 281.167 463.663 280.125 462.963 279.425C462.28 278.708 461.313 278.35 460.063 278.35C459.13 278.35 458.313 278.542 457.613 278.925C456.93 279.292 456.396 279.833 456.013 280.55C455.646 281.25 455.463 282.1 455.463 283.1V290H453.688V271.45H455.463V280.475L455.113 279.8C455.53 278.85 456.196 278.108 457.113 277.575C458.03 277.025 459.121 276.75 460.388 276.75ZM475.932 290.125C474.666 290.125 473.524 289.842 472.507 289.275C471.507 288.692 470.716 287.9 470.132 286.9C469.549 285.883 469.257 284.725 469.257 283.425C469.257 282.108 469.549 280.95 470.132 279.95C470.716 278.95 471.507 278.167 472.507 277.6C473.507 277.033 474.649 276.75 475.932 276.75C477.232 276.75 478.382 277.033 479.382 277.6C480.399 278.167 481.191 278.95 481.757 279.95C482.341 280.95 482.632 282.108 482.632 283.425C482.632 284.725 482.341 285.883 481.757 286.9C481.191 287.9 480.399 288.692 479.382 289.275C478.366 289.842 477.216 290.125 475.932 290.125ZM475.932 288.55C476.882 288.55 477.724 288.342 478.457 287.925C479.191 287.492 479.766 286.892 480.182 286.125C480.616 285.342 480.832 284.442 480.832 283.425C480.832 282.392 480.616 281.492 480.182 280.725C479.766 279.958 479.191 279.367 478.457 278.95C477.724 278.517 476.891 278.3 475.957 278.3C475.024 278.3 474.191 278.517 473.457 278.95C472.724 279.367 472.141 279.958 471.707 280.725C471.274 281.492 471.057 282.392 471.057 283.425C471.057 284.442 471.274 285.342 471.707 286.125C472.141 286.892 472.724 287.492 473.457 287.925C474.191 288.342 475.016 288.55 475.932 288.55ZM498.374 290.125C497.008 290.125 495.808 289.842 494.774 289.275C493.741 288.692 492.933 287.9 492.349 286.9C491.766 285.883 491.474 284.725 491.474 283.425C491.474 282.125 491.749 280.975 492.299 279.975C492.866 278.975 493.633 278.192 494.599 277.625C495.583 277.042 496.683 276.75 497.899 276.75C499.133 276.75 500.224 277.033 501.174 277.6C502.141 278.15 502.899 278.933 503.449 279.95C503.999 280.95 504.274 282.108 504.274 283.425C504.274 283.508 504.266 283.6 504.249 283.7C504.249 283.783 504.249 283.875 504.249 283.975H492.824V282.65H503.299L502.599 283.175C502.599 282.225 502.391 281.383 501.974 280.65C501.574 279.9 501.024 279.317 500.324 278.9C499.624 278.483 498.816 278.275 497.899 278.275C496.999 278.275 496.191 278.483 495.474 278.9C494.758 279.317 494.199 279.9 493.799 280.65C493.399 281.4 493.199 282.258 493.199 283.225V283.5C493.199 284.5 493.416 285.383 493.849 286.15C494.299 286.9 494.916 287.492 495.699 287.925C496.499 288.342 497.408 288.55 498.424 288.55C499.224 288.55 499.966 288.408 500.649 288.125C501.349 287.842 501.949 287.408 502.449 286.825L503.449 287.975C502.866 288.675 502.133 289.208 501.249 289.575C500.383 289.942 499.424 290.125 498.374 290.125ZM524.287 276.75C525.354 276.75 526.279 276.958 527.062 277.375C527.862 277.775 528.479 278.392 528.912 279.225C529.362 280.058 529.587 281.108 529.587 282.375V290H527.812V282.55C527.812 281.167 527.479 280.125 526.812 279.425C526.162 278.708 525.237 278.35 524.037 278.35C523.137 278.35 522.354 278.542 521.687 278.925C521.037 279.292 520.529 279.833 520.162 280.55C519.812 281.25 519.637 282.1 519.637 283.1V290H517.862V282.55C517.862 281.167 517.529 280.125 516.862 279.425C516.195 278.708 515.262 278.35 514.062 278.35C513.179 278.35 512.404 278.542 511.737 278.925C511.07 279.292 510.554 279.833 510.187 280.55C509.837 281.25 509.662 282.1 509.662 283.1V290H507.887V276.875H509.587V280.425L509.312 279.8C509.712 278.85 510.354 278.108 511.237 277.575C512.137 277.025 513.195 276.75 514.412 276.75C515.695 276.75 516.787 277.075 517.687 277.725C518.587 278.358 519.17 279.317 519.437 280.6L518.737 280.325C519.12 279.258 519.795 278.4 520.762 277.75C521.745 277.083 522.92 276.75 524.287 276.75ZM546.369 290.125C545.252 290.125 544.277 289.917 543.444 289.5C542.61 289.083 541.96 288.458 541.494 287.625C541.044 286.792 540.819 285.75 540.819 284.5V276.875H542.594V284.3C542.594 285.7 542.935 286.758 543.619 287.475C544.319 288.175 545.294 288.525 546.544 288.525C547.46 288.525 548.252 288.342 548.919 287.975C549.602 287.592 550.119 287.042 550.469 286.325C550.835 285.608 551.019 284.75 551.019 283.75V276.875H552.794V290H551.094V286.4L551.369 287.05C550.952 288.017 550.302 288.775 549.419 289.325C548.552 289.858 547.535 290.125 546.369 290.125ZM574.141 276.75C575.207 276.75 576.132 276.958 576.916 277.375C577.716 277.775 578.332 278.392 578.766 279.225C579.216 280.058 579.441 281.108 579.441 282.375V290H577.666V282.55C577.666 281.167 577.332 280.125 576.666 279.425C576.016 278.708 575.091 278.35 573.891 278.35C572.991 278.35 572.207 278.542 571.541 278.925C570.891 279.292 570.382 279.833 570.016 280.55C569.666 281.25 569.491 282.1 569.491 283.1V290H567.716V282.55C567.716 281.167 567.382 280.125 566.716 279.425C566.049 278.708 565.116 278.35 563.916 278.35C563.032 278.35 562.257 278.542 561.591 278.925C560.924 279.292 560.407 279.833 560.041 280.55C559.691 281.25 559.516 282.1 559.516 283.1V290H557.741V276.875H559.441V280.425L559.166 279.8C559.566 278.85 560.207 278.108 561.091 277.575C561.991 277.025 563.049 276.75 564.266 276.75C565.549 276.75 566.641 277.075 567.541 277.725C568.441 278.358 569.024 279.317 569.291 280.6L568.591 280.325C568.974 279.258 569.649 278.4 570.616 277.75C571.599 277.083 572.774 276.75 574.141 276.75ZM592.479 290V287.1L592.404 286.625V281.775C592.404 280.658 592.088 279.8 591.454 279.2C590.838 278.6 589.913 278.3 588.679 278.3C587.829 278.3 587.021 278.442 586.254 278.725C585.488 279.008 584.838 279.383 584.304 279.85L583.504 278.525C584.171 277.958 584.971 277.525 585.904 277.225C586.838 276.908 587.821 276.75 588.854 276.75C590.554 276.75 591.863 277.175 592.779 278.025C593.713 278.858 594.179 280.133 594.179 281.85V290H592.479ZM587.954 290.125C586.971 290.125 586.113 289.967 585.379 289.65C584.663 289.317 584.113 288.867 583.729 288.3C583.346 287.717 583.154 287.05 583.154 286.3C583.154 285.617 583.313 285 583.629 284.45C583.963 283.883 584.496 283.433 585.229 283.1C585.979 282.75 586.979 282.575 588.229 282.575H592.754V283.9H588.279C587.013 283.9 586.129 284.125 585.629 284.575C585.146 285.025 584.904 285.583 584.904 286.25C584.904 287 585.196 287.6 585.779 288.05C586.363 288.5 587.179 288.725 588.229 288.725C589.229 288.725 590.088 288.5 590.804 288.05C591.538 287.583 592.071 286.917 592.404 286.05L592.804 287.275C592.471 288.142 591.888 288.833 591.054 289.35C590.238 289.867 589.204 290.125 587.954 290.125ZM608.918 290L603.093 276.875H604.943L610.293 289.05H609.418L614.843 276.875H616.593L610.743 290H608.918ZM619.093 290V276.875H620.868V290H619.093ZM619.993 273.975C619.626 273.975 619.318 273.85 619.068 273.6C618.818 273.35 618.693 273.05 618.693 272.7C618.693 272.35 618.818 272.058 619.068 271.825C619.318 271.575 619.626 271.45 619.993 271.45C620.36 271.45 620.668 271.567 620.918 271.8C621.168 272.033 621.293 272.325 621.293 272.675C621.293 273.042 621.168 273.35 620.918 273.6C620.685 273.85 620.376 273.975 619.993 273.975ZM634.032 290V287.1L633.957 286.625V281.775C633.957 280.658 633.64 279.8 633.007 279.2C632.39 278.6 631.465 278.3 630.232 278.3C629.382 278.3 628.574 278.442 627.807 278.725C627.04 279.008 626.39 279.383 625.857 279.85L625.057 278.525C625.724 277.958 626.524 277.525 627.457 277.225C628.39 276.908 629.374 276.75 630.407 276.75C632.107 276.75 633.415 277.175 634.332 278.025C635.265 278.858 635.732 280.133 635.732 281.85V290H634.032ZM629.507 290.125C628.524 290.125 627.665 289.967 626.932 289.65C626.215 289.317 625.665 288.867 625.282 288.3C624.899 287.717 624.707 287.05 624.707 286.3C624.707 285.617 624.865 285 625.182 284.45C625.515 283.883 626.049 283.433 626.782 283.1C627.532 282.75 628.532 282.575 629.782 282.575H634.307V283.9H629.832C628.565 283.9 627.682 284.125 627.182 284.575C626.699 285.025 626.457 285.583 626.457 286.25C626.457 287 626.749 287.6 627.332 288.05C627.915 288.5 628.732 288.725 629.782 288.725C630.782 288.725 631.64 288.5 632.357 288.05C633.09 287.583 633.624 286.917 633.957 286.05L634.357 287.275C634.024 288.142 633.44 288.833 632.607 289.35C631.79 289.867 630.757 290.125 629.507 290.125ZM646.153 294.975C644.953 294.975 643.803 294.8 642.703 294.45C641.603 294.1 640.711 293.6 640.028 292.95L640.928 291.6C641.545 292.15 642.303 292.583 643.203 292.9C644.12 293.233 645.086 293.4 646.103 293.4C647.77 293.4 648.995 293.008 649.778 292.225C650.561 291.458 650.953 290.258 650.953 288.625V285.35L651.203 283.1L651.028 280.85V276.875H652.728V288.4C652.728 290.667 652.17 292.325 651.053 293.375C649.953 294.442 648.32 294.975 646.153 294.975ZM645.828 289.5C644.578 289.5 643.453 289.233 642.453 288.7C641.453 288.15 640.661 287.392 640.078 286.425C639.511 285.458 639.228 284.35 639.228 283.1C639.228 281.85 639.511 280.75 640.078 279.8C640.661 278.833 641.453 278.083 642.453 277.55C643.453 277.017 644.578 276.75 645.828 276.75C646.995 276.75 648.045 276.992 648.978 277.475C649.911 277.958 650.653 278.675 651.203 279.625C651.753 280.575 652.028 281.733 652.028 283.1C652.028 284.467 651.753 285.625 651.203 286.575C650.653 287.525 649.911 288.25 648.978 288.75C648.045 289.25 646.995 289.5 645.828 289.5ZM646.003 287.925C646.97 287.925 647.828 287.725 648.578 287.325C649.328 286.908 649.92 286.342 650.353 285.625C650.786 284.892 651.003 284.05 651.003 283.1C651.003 282.15 650.786 281.317 650.353 280.6C649.92 279.883 649.328 279.325 648.578 278.925C647.828 278.508 646.97 278.3 646.003 278.3C645.053 278.3 644.195 278.508 643.428 278.925C642.678 279.325 642.086 279.883 641.653 280.6C641.236 281.317 641.028 282.15 641.028 283.1C641.028 284.05 641.236 284.892 641.653 285.625C642.086 286.342 642.678 286.908 643.428 287.325C644.195 287.725 645.053 287.925 646.003 287.925ZM663.242 290.125C661.876 290.125 660.676 289.842 659.642 289.275C658.609 288.692 657.801 287.9 657.217 286.9C656.634 285.883 656.342 284.725 656.342 283.425C656.342 282.125 656.617 280.975 657.167 279.975C657.734 278.975 658.501 278.192 659.467 277.625C660.451 277.042 661.551 276.75 662.767 276.75C664.001 276.75 665.092 277.033 666.042 277.6C667.009 278.15 667.767 278.933 668.317 279.95C668.867 280.95 669.142 282.108 669.142 283.425C669.142 283.508 669.134 283.6 669.117 283.7C669.117 283.783 669.117 283.875 669.117 283.975H657.692V282.65H668.167L667.467 283.175C667.467 282.225 667.259 281.383 666.842 280.65C666.442 279.9 665.892 279.317 665.192 278.9C664.492 278.483 663.684 278.275 662.767 278.275C661.867 278.275 661.059 278.483 660.342 278.9C659.626 279.317 659.067 279.9 658.667 280.65C658.267 281.4 658.067 282.258 658.067 283.225V283.5C658.067 284.5 658.284 285.383 658.717 286.15C659.167 286.9 659.784 287.492 660.567 287.925C661.367 288.342 662.276 288.55 663.292 288.55C664.092 288.55 664.834 288.408 665.517 288.125C666.217 287.842 666.817 287.408 667.317 286.825L668.317 287.975C667.734 288.675 667.001 289.208 666.117 289.575C665.251 289.942 664.292 290.125 663.242 290.125ZM689.155 276.75C690.222 276.75 691.147 276.958 691.93 277.375C692.73 277.775 693.347 278.392 693.78 279.225C694.23 280.058 694.455 281.108 694.455 282.375V290H692.68V282.55C692.68 281.167 692.347 280.125 691.68 279.425C691.03 278.708 690.105 278.35 688.905 278.35C688.005 278.35 687.222 278.542 686.555 278.925C685.905 279.292 685.397 279.833 685.03 280.55C684.68 281.25 684.505 282.1 684.505 283.1V290H682.73V282.55C682.73 281.167 682.397 280.125 681.73 279.425C681.064 278.708 680.13 278.35 678.93 278.35C678.047 278.35 677.272 278.542 676.605 278.925C675.939 279.292 675.422 279.833 675.055 280.55C674.705 281.25 674.53 282.1 674.53 283.1V290H672.755V276.875H674.455V280.425L674.18 279.8C674.58 278.85 675.222 278.108 676.105 277.575C677.005 277.025 678.064 276.75 679.28 276.75C680.564 276.75 681.655 277.075 682.555 277.725C683.455 278.358 684.039 279.317 684.305 280.6L683.605 280.325C683.989 279.258 684.664 278.4 685.63 277.75C686.614 277.083 687.789 276.75 689.155 276.75ZM709.337 290.125C708.254 290.125 707.229 289.975 706.262 289.675C705.295 289.358 704.537 288.967 703.987 288.5L704.787 287.1C705.32 287.5 706.004 287.85 706.837 288.15C707.67 288.433 708.545 288.575 709.462 288.575C710.712 288.575 711.612 288.383 712.162 288C712.712 287.6 712.987 287.075 712.987 286.425C712.987 285.942 712.829 285.567 712.512 285.3C712.212 285.017 711.812 284.808 711.312 284.675C710.812 284.525 710.254 284.4 709.637 284.3C709.02 284.2 708.404 284.083 707.787 283.95C707.187 283.817 706.637 283.625 706.137 283.375C705.637 283.108 705.229 282.75 704.912 282.3C704.612 281.85 704.462 281.25 704.462 280.5C704.462 279.783 704.662 279.142 705.062 278.575C705.462 278.008 706.045 277.567 706.812 277.25C707.595 276.917 708.545 276.75 709.662 276.75C710.512 276.75 711.362 276.867 712.212 277.1C713.062 277.317 713.762 277.608 714.312 277.975L713.537 279.4C712.954 279 712.329 278.717 711.662 278.55C710.995 278.367 710.329 278.275 709.662 278.275C708.479 278.275 707.604 278.483 707.037 278.9C706.487 279.3 706.212 279.817 706.212 280.45C706.212 280.95 706.362 281.342 706.662 281.625C706.979 281.908 707.387 282.133 707.887 282.3C708.404 282.45 708.962 282.575 709.562 282.675C710.179 282.775 710.787 282.9 711.387 283.05C712.004 283.183 712.562 283.375 713.062 283.625C713.579 283.858 713.987 284.2 714.287 284.65C714.604 285.083 714.762 285.658 714.762 286.375C714.762 287.142 714.545 287.808 714.112 288.375C713.695 288.925 713.079 289.358 712.262 289.675C711.462 289.975 710.487 290.125 709.337 290.125ZM723.594 290.125C722.227 290.125 721.027 289.842 719.994 289.275C718.961 288.692 718.152 287.9 717.569 286.9C716.986 285.883 716.694 284.725 716.694 283.425C716.694 282.125 716.969 280.975 717.519 279.975C718.086 278.975 718.852 278.192 719.819 277.625C720.802 277.042 721.902 276.75 723.119 276.75C724.352 276.75 725.444 277.033 726.394 277.6C727.361 278.15 728.119 278.933 728.669 279.95C729.219 280.95 729.494 282.108 729.494 283.425C729.494 283.508 729.486 283.6 729.469 283.7C729.469 283.783 729.469 283.875 729.469 283.975H718.044V282.65H728.519L727.819 283.175C727.819 282.225 727.611 281.383 727.194 280.65C726.794 279.9 726.244 279.317 725.544 278.9C724.844 278.483 724.036 278.275 723.119 278.275C722.219 278.275 721.411 278.483 720.694 278.9C719.977 279.317 719.419 279.9 719.019 280.65C718.619 281.4 718.419 282.258 718.419 283.225V283.5C718.419 284.5 718.636 285.383 719.069 286.15C719.519 286.9 720.136 287.492 720.919 287.925C721.719 288.342 722.627 288.55 723.644 288.55C724.444 288.55 725.186 288.408 725.869 288.125C726.569 287.842 727.169 287.408 727.669 286.825L728.669 287.975C728.086 288.675 727.352 289.208 726.469 289.575C725.602 289.942 724.644 290.125 723.594 290.125ZM738.707 294.975C737.507 294.975 736.357 294.8 735.257 294.45C734.157 294.1 733.265 293.6 732.582 292.95L733.482 291.6C734.099 292.15 734.857 292.583 735.757 292.9C736.674 293.233 737.64 293.4 738.657 293.4C740.324 293.4 741.549 293.008 742.332 292.225C743.115 291.458 743.507 290.258 743.507 288.625V285.35L743.757 283.1L743.582 280.85V276.875H745.282V288.4C745.282 290.667 744.724 292.325 743.607 293.375C742.507 294.442 740.874 294.975 738.707 294.975ZM738.382 289.5C737.132 289.5 736.007 289.233 735.007 288.7C734.007 288.15 733.215 287.392 732.632 286.425C732.065 285.458 731.782 284.35 731.782 283.1C731.782 281.85 732.065 280.75 732.632 279.8C733.215 278.833 734.007 278.083 735.007 277.55C736.007 277.017 737.132 276.75 738.382 276.75C739.549 276.75 740.599 276.992 741.532 277.475C742.465 277.958 743.207 278.675 743.757 279.625C744.307 280.575 744.582 281.733 744.582 283.1C744.582 284.467 744.307 285.625 743.757 286.575C743.207 287.525 742.465 288.25 741.532 288.75C740.599 289.25 739.549 289.5 738.382 289.5ZM738.557 287.925C739.524 287.925 740.382 287.725 741.132 287.325C741.882 286.908 742.474 286.342 742.907 285.625C743.34 284.892 743.557 284.05 743.557 283.1C743.557 282.15 743.34 281.317 742.907 280.6C742.474 279.883 741.882 279.325 741.132 278.925C740.382 278.508 739.524 278.3 738.557 278.3C737.607 278.3 736.749 278.508 735.982 278.925C735.232 279.325 734.64 279.883 734.207 280.6C733.79 281.317 733.582 282.15 733.582 283.1C733.582 284.05 733.79 284.892 734.207 285.625C734.64 286.342 735.232 286.908 735.982 287.325C736.749 287.725 737.607 287.925 738.557 287.925ZM755.646 290.125C754.529 290.125 753.554 289.917 752.721 289.5C751.888 289.083 751.238 288.458 750.771 287.625C750.321 286.792 750.096 285.75 750.096 284.5V276.875H751.871V284.3C751.871 285.7 752.213 286.758 752.896 287.475C753.596 288.175 754.571 288.525 755.821 288.525C756.738 288.525 757.529 288.342 758.196 287.975C758.879 287.592 759.396 287.042 759.746 286.325C760.113 285.608 760.296 284.75 760.296 283.75V276.875H762.071V290H760.371V286.4L760.646 287.05C760.229 288.017 759.579 288.775 758.696 289.325C757.829 289.858 756.813 290.125 755.646 290.125ZM767.018 290V276.875H768.718V280.45L768.543 279.825C768.91 278.825 769.526 278.067 770.393 277.55C771.26 277.017 772.335 276.75 773.618 276.75V278.475C773.551 278.475 773.485 278.475 773.418 278.475C773.351 278.458 773.285 278.45 773.218 278.45C771.835 278.45 770.751 278.875 769.968 279.725C769.185 280.558 768.793 281.75 768.793 283.3V290H767.018ZM784.105 290V287.1L784.03 286.625V281.775C784.03 280.658 783.714 279.8 783.08 279.2C782.464 278.6 781.539 278.3 780.305 278.3C779.455 278.3 778.647 278.442 777.88 278.725C777.114 279.008 776.464 279.383 775.93 279.85L775.13 278.525C775.797 277.958 776.597 277.525 777.53 277.225C778.464 276.908 779.447 276.75 780.48 276.75C782.18 276.75 783.489 277.175 784.405 278.025C785.339 278.858 785.805 280.133 785.805 281.85V290H784.105ZM779.58 290.125C778.597 290.125 777.739 289.967 777.005 289.65C776.289 289.317 775.739 288.867 775.355 288.3C774.972 287.717 774.78 287.05 774.78 286.3C774.78 285.617 774.939 285 775.255 284.45C775.589 283.883 776.122 283.433 776.855 283.1C777.605 282.75 778.605 282.575 779.855 282.575H784.38V283.9H779.905C778.639 283.9 777.755 284.125 777.255 284.575C776.772 285.025 776.53 285.583 776.53 286.25C776.53 287 776.822 287.6 777.405 288.05C777.989 288.5 778.805 288.725 779.855 288.725C780.855 288.725 781.714 288.5 782.43 288.05C783.164 287.583 783.697 286.917 784.03 286.05L784.43 287.275C784.097 288.142 783.514 288.833 782.68 289.35C781.864 289.867 780.83 290.125 779.58 290.125Z" fill="white"/>
<defs>
<linearGradient id="paint0_linear_5_103" x1="487.832" y1="18" x2="487.832" y2="186.109" gradientUnits="userSpaceOnUse">
<stop stop-color="#5C5C5C"/>
<stop offset="0.600521" stop-color="#5C5C5C"/>
<stop offset="0.816881" stop-color="#FF0000"/>
</linearGradient>
<linearGradient id="paint1_linear_5_103" x1="639.569" y1="136" x2="639.569" y2="265.174" gradientUnits="userSpaceOnUse">
<stop stop-color="#AD2323"/>
</linearGradient>
</defs>
</svg>
